<svg width="724.2124267578125px" height="138.8px" xmlns="http://www.w3.org/2000/svg" viewBox="-112.10621337890626 5.599999999999994 724.2124267578125 138.8" style="background: rgba(0, 0, 0, 0);" preserveAspectRatio="xMidYMid"><defs><filter id="editing-extrude-glow"><feFlood flood-color="#333333" result="flood-1"></feFlood><feMorphology operator="erode" radius="1" in="SourceAlpha" result="erode"></feMorphology><feComposite operator="in" in="flood-1" in2="erode" result="comp1"></feComposite><feConvolveMatrix order="3,3" divisor="1" in="comp1" result="convolve" kernelMatrix="0 0 0 1 1 1 0 0 0"></feConvolveMatrix><feOffset dx="-3" dy="0" in="convolve" result="extrude"></feOffset><feComposite operator="in" in="flood-1" in2="extrude" result="comp-extrude"></feComposite><feFlood flood-color="#000000" result="flood-2"></feFlood><feComposite operator="in" in="flood-2" in2="SourceAlpha" result="comp2"></feComposite><feMorphology operator="dilate" radius="1" in="comp2" result="dilate"></feMorphology><feOffset dx="-4.5" dy="0" in="dilate" result="offset"></feOffset><feGaussianBlur in="offset" stdDeviation="5.8" result="blur"></feGaussianBlur><feComponentTransfer in="blur" result="shadow"><feFuncA type="linear" slope="0.8" intercept="-0.2"></feFuncA></feComponentTransfer><feMerge><feMergeNode in="shadow"></feMergeNode><feMergeNode in="comp-extrude"></feMergeNode><feMergeNode in="SourceGraphic"></feMergeNode></feMerge></filter></defs><g filter="url(#editing-extrude-glow)"><g transform="translate(-9.10501217842102, 106.84000205993652)"><path d="M71.87-49.79L71.87-39.30L68.67-39.30L68.67-10.50L71.87-10.50L71.87 0L47.68 0L47.68-10.50L50.75-10.50L50.75-32.90L39.87 0L30.40 0L19.20-32.58L19.20-10.50L22.27-10.50L22.27 0L1.28 0L1.28-10.50L4.48-10.50L4.48-39.30L1.28-39.30L1.28-49.79L30.59-49.79L37.25-29.82L43.65-49.79L71.87-49.79ZM108.80-10.50L111.62-10.50L111.62 0L94.72 0L94.72-4.35L94.72-4.35Q93.31-2.30 90.78-0.70L90.78-0.70L90.78-0.70Q88.26 0.90 84.61 0.90L84.61 0.90L84.61 0.90Q79.81 0.90 77.06-1.66L77.06-1.66L77.06-1.66Q74.30-4.22 74.30-8.90L74.30-8.90L74.30-8.90Q74.30-20.99 94.85-21.31L94.85-21.31L94.85-21.31Q94.66-23.49 93.18-24.29L93.18-24.29L93.18-24.29Q91.71-25.09 88.19-25.09L88.19-25.09L88.19-25.09Q85.31-25.09 82.02-24.48L82.02-24.48L82.02-24.48Q78.72-23.87 75.97-22.85L75.97-22.85L75.97-34.62L75.97-34.62Q79.36-35.46 83.33-35.97L83.33-35.97L83.33-35.97Q87.30-36.48 91.07-36.48L91.07-36.48L91.07-36.48Q100.61-36.48 104.70-33.02L104.70-33.02L104.70-33.02Q108.80-29.57 108.80-22.34L108.80-22.34L108.80-10.50ZM94.72-14.59L94.72-14.98L94.72-14.98Q91.84-14.98 90.27-14.21L90.27-14.21L90.27-14.21Q88.70-13.44 88.70-11.65L88.70-11.65L88.70-11.65Q88.70-10.56 89.38-9.89L89.38-9.89L89.38-9.89Q90.05-9.22 91.26-9.22L91.26-9.22L91.26-9.22Q92.93-9.22 93.82-10.62L93.82-10.62L93.82-10.62Q94.72-12.03 94.72-14.59L94.72-14.59ZM146.11-19.01L152.26-10.50L155.01-10.50L155.01 0L139.33 0L132.74-12.29L131.20-12.29L131.20 0L113.66 0L113.66-10.50L116.48-10.50L116.48-39.30L113.66-39.30L113.66-49.79L131.20-49.79L131.20-23.81L132.74-23.81L140.67-35.58L154.18-35.58L154.18-25.09L151.55-25.09L146.11-19.01ZM172.61 0.90L172.61 0.90Q164.54 0.90 157.06-1.66L157.06-1.66L157.06-11.14L167.42-11.14L167.42-10.50L167.42-10.50Q167.42-7.42 171.33-7.42L171.33-7.42L171.33-7.42Q174.78-7.42 174.78-9.79L174.78-9.79L174.78-9.79Q174.78-11.07 173.79-11.71L173.79-11.71L173.79-11.71Q172.80-12.35 170.30-12.80L170.30-12.80L167.10-13.38L167.10-13.38Q157.06-15.17 157.06-24.77L157.06-24.77L157.06-24.77Q157.06-30.34 161.28-33.41L161.28-33.41L161.28-33.41Q165.50-36.48 172.67-36.48L172.67-36.48L172.67-36.48Q180.67-36.48 186.18-33.79L186.18-33.79L186.18-24.90L176.45-24.90L176.45-25.54L176.45-25.54Q176.45-26.82 175.58-27.49L175.58-27.49L175.58-27.49Q174.72-28.16 173.06-28.16L173.06-28.16L173.06-28.16Q169.86-28.16 169.86-26.11L169.86-26.11L169.86-26.11Q169.86-25.02 170.75-24.45L170.75-24.45L170.75-24.45Q171.65-23.87 174.02-23.36L174.02-23.36L177.66-22.66L177.66-22.66Q183.36-21.57 185.79-18.62L185.79-18.62L185.79-18.62Q188.22-15.68 188.22-11.07L188.22-11.07L188.22-11.07Q188.22-5.25 184.16-2.18L184.16-2.18L184.16-2.18Q180.10 0.90 172.61 0.90L172.61 0.90ZM206.40-39.10L193.34-39.10L193.34-49.79L206.40-49.79L206.40-39.10ZM210.62 0L190.27 0L190.27-10.50L193.09-10.50L193.09-25.09L190.27-25.09L190.27-35.58L207.81-35.58L207.81-10.50L210.62-10.50L210.62 0ZM274.24-10.50L277.06-10.50L277.06 0L256.83 0L256.83-10.50L259.52-10.50L259.52-20.99L259.52-20.99Q259.52-23.10 258.62-24.10L258.62-24.10L258.62-24.10Q257.73-25.09 255.94-25.09L255.94-25.09L255.94-25.09Q252.10-25.09 252.10-20.99L252.10-20.99L252.10-10.50L254.78-10.50L254.78 0L234.69 0L234.69-10.50L237.38-10.50L237.38-20.99L237.38-20.99Q237.38-23.10 236.48-24.10L236.48-24.10L236.48-24.10Q235.58-25.09 233.79-25.09L233.79-25.09L233.79-25.09Q229.95-25.09 229.95-20.99L229.95-20.99L229.95-10.50L232.64-10.50L232.64 0L212.42 0L212.42-10.50L215.23-10.50L215.23-25.09L212.42-25.09L212.42-35.58L229.95-35.58L229.95-30.59L229.95-30.59Q234.56-36.48 241.47-36.48L241.47-36.48L241.47-36.48Q245.38-36.48 247.84-34.66L247.84-34.66L247.84-34.66Q250.30-32.83 251.33-29.50L251.33-29.50L251.33-29.50Q253.63-32.83 256.61-34.62L256.61-34.62L256.61-34.62Q259.58-36.42 263.62-36.42L263.62-36.42L263.62-36.42Q268.93-36.42 271.58-33.09L271.58-33.09L271.58-33.09Q274.24-29.76 274.24-23.94L274.24-23.94L274.24-10.50ZM316.35 10.62L277.95 10.62L277.95 4.61L316.35 4.61L316.35 10.62ZM354.56-30.46L365.57-10.50L368.77-10.50L368.77 0L351.30 0L341.70-19.84L338.75-17.41L338.75-10.50L341.82-10.50L341.82 0L317.63 0L317.63-10.50L320.83-10.50L320.83-39.30L317.63-39.30L317.63-49.79L341.82-49.79L341.82-39.30L338.75-39.30L338.75-30.85L348.67-39.30L344.64-39.30L344.64-49.79L368.45-49.79L368.45-39.30L365.25-39.30L354.56-30.46ZM405.44-10.50L408.26-10.50L408.26 0L391.36 0L391.36-4.35L391.36-4.35Q389.95-2.30 387.42-0.70L387.42-0.70L387.42-0.70Q384.90 0.90 381.25 0.90L381.25 0.90L381.25 0.90Q376.45 0.90 373.70-1.66L373.70-1.66L373.70-1.66Q370.94-4.22 370.94-8.90L370.94-8.90L370.94-8.90Q370.94-20.99 391.49-21.31L391.49-21.31L391.49-21.31Q391.30-23.49 389.82-24.29L389.82-24.29L389.82-24.29Q388.35-25.09 384.83-25.09L384.83-25.09L384.83-25.09Q381.95-25.09 378.66-24.48L378.66-24.48L378.66-24.48Q375.36-23.87 372.61-22.85L372.61-22.85L372.61-34.62L372.61-34.62Q376-35.46 379.97-35.97L379.97-35.97L379.97-35.97Q383.94-36.48 387.71-36.48L387.71-36.48L387.71-36.48Q397.25-36.48 401.34-33.02L401.34-33.02L401.34-33.02Q405.44-29.57 405.44-22.34L405.44-22.34L405.44-10.50ZM391.36-14.59L391.36-14.98L391.36-14.98Q388.48-14.98 386.91-14.21L386.91-14.21L386.91-14.21Q385.34-13.44 385.34-11.65L385.34-11.65L385.34-11.65Q385.34-10.56 386.02-9.89L386.02-9.89L386.02-9.89Q386.69-9.22 387.90-9.22L387.90-9.22L387.90-9.22Q389.57-9.22 390.46-10.62L390.46-10.62L390.46-10.62Q391.36-12.03 391.36-14.59L391.36-14.59ZM426.11 0.90L426.11 0.90Q419.33 0.90 415.90-2.40L415.90-2.40L415.90-2.40Q412.48-5.70 412.48-13.50L412.48-13.50L412.48-25.09L409.66-25.09L409.66-35.58L409.66-35.58Q412.10-35.58 413.31-36.83L413.31-36.83L413.31-36.83Q414.53-38.08 414.53-40.26L414.53-40.26L414.53-43.14L428.10-43.14L428.10-35.58L436.74-35.58L436.74-25.09L428.10-25.09L428.10-14.59L428.10-14.59Q428.10-12.48 429.02-11.49L429.02-11.49L429.02-11.49Q429.95-10.50 431.81-10.50L431.81-10.50L431.81-10.50Q434.24-10.50 437.12-11.07L437.12-11.07L437.12-1.02L437.12-1.02Q435.33-0.32 432.29 0.29L432.29 0.29L432.29 0.29Q429.25 0.90 426.11 0.90L426.11 0.90ZM459.90-35.58L477.70-35.58L477.70-25.09L475.26-25.09L466.88-2.88L466.88-2.88Q463.74 5.50 459.71 9.70L459.71 9.70L459.71 9.70Q455.68 13.89 449.09 13.89L449.09 13.89L449.09 13.89Q446.40 13.89 443.65 13.34L443.65 13.34L443.65 13.34Q440.90 12.80 438.66 11.84L438.66 11.84L438.66 0.26L447.49 0.26L447.49 0.90L447.49 0.90Q447.49 2.50 449.15 2.50L449.15 2.50L449.15 2.50Q450.62 2.50 451.39 1.09L451.39 1.09L441.28-25.09L438.85-25.09L438.85-35.58L457.86-35.58L457.86-25.09L455.68-25.09L459.01-15.10L462.08-25.09L459.90-25.09L459.90-35.58ZM514.11-10.50L516.93-10.50L516.93 0L500.03 0L500.03-4.35L500.03-4.35Q498.62-2.30 496.10-0.70L496.10-0.70L496.10-0.70Q493.57 0.90 489.92 0.90L489.92 0.90L489.92 0.90Q485.12 0.90 482.37-1.66L482.37-1.66L482.37-1.66Q479.62-4.22 479.62-8.90L479.62-8.90L479.62-8.90Q479.62-20.99 500.16-21.31L500.16-21.31L500.16-21.31Q499.97-23.49 498.50-24.29L498.50-24.29L498.50-24.29Q497.02-25.09 493.50-25.09L493.50-25.09L493.50-25.09Q490.62-25.09 487.33-24.48L487.33-24.48L487.33-24.48Q484.03-23.87 481.28-22.85L481.28-22.85L481.28-34.62L481.28-34.62Q484.67-35.46 488.64-35.97L488.64-35.97L488.64-35.97Q492.61-36.48 496.38-36.48L496.38-36.48L496.38-36.48Q505.92-36.48 510.02-33.02L510.02-33.02L510.02-33.02Q514.11-29.57 514.11-22.34L514.11-22.34L514.11-10.50ZM500.03-14.59L500.03-14.98L500.03-14.98Q497.15-14.98 495.58-14.21L495.58-14.21L495.58-14.21Q494.02-13.44 494.02-11.65L494.02-11.65L494.02-11.65Q494.02-10.56 494.69-9.89L494.69-9.89L494.69-9.89Q495.36-9.22 496.58-9.22L496.58-9.22L496.58-9.22Q498.24-9.22 499.14-10.62L499.14-10.62L499.14-10.62Q500.03-12.03 500.03-14.59L500.03-14.59Z" fill="#eb6c6c"></path></g></g><style>text {
  font-size: 64px;
  font-family: Arial Black;
  dominant-baseline: central;
  text-anchor: middle;
}</style></svg>